<svg xmlns="http://www.w3.org/2000/svg" version="1.1" xmlns:xlink="http://www.w3.org/1999/xlink" width="512" height="512" x="0" y="0" viewBox="0 0 512 512" style="enable-background:new 0 0 512 512" xml:space="preserve" class=""><g><path fill="#c96f32" d="M257.3 50.2c-1.9-5.3-5.3-10-9.5-13.8-2.8-2.5-6-1.2-7.3 1.2-.6-.8-1.3-1.6-2-2.4-3.4-3.6-9.2.1-8 4.6 1.6 6.1 4.4 11.9 6.9 17.6 2.1 5 4 12.1 10.5 12.3 1.2 0 9.1 19.8 9.9 18.9 2.3 1.4-1.3-20.2.3-22.3 3.3-4.4.8-11.4-.8-16.1z" opacity="1" data-original="#c96f32"></path><path fill="#e89256" d="M244.2 34.9c-5.2-1.7-11.1 1.5-14.9 4.8-1.7 1.5-1.8 4.2-.8 6 1.5 2.5 4.3 2.9 6.8 1.8 3.3-1.5 6.9-1.8 10.1-3.4 4.1-2 2.7-8-1.2-9.2z" opacity="1" data-original="#e89256"></path><path fill="#eeed93" d="M376.7 285.1c-8.4-19.3-22.6-35.6-31.8-54.5-5.9-12.1-8.5-26.1-11.9-39.1-6.8-26.3-14.1-57.2-36.3-75-24.9-20-59.3-13-82.6 5.7-24.8 19.9-37.7 51.7-44.3 81.9-3.6 7.2-6.3 14.9-10.8 21.5-8.4 12.4-19.4 23-28.4 34.9-20.4 27.1-21.8 62.6-20.6 95.2 1.9 53.6 48.2 90.3 95 107.3 47.1 17.1 101.9 7.3 142.6-21 19.6-13.6 35.2-32.5 41.5-55.8 8.8-32.4.7-70.9-12.4-101.1z" opacity="1" data-original="#eeed93" class=""></path><path fill="#c96f32" d="M353.7 337.4c.1-.4.1-.9.2-1.3 3.1-24.7-4-48.5-21.6-66.3-15.4-15.6-40.9-20.6-61.6-22.9-14.3-1.6-32.3-1.7-46.7 4.3-16.9 0-31.7 15-40.7 28.2-12.3 18-17.7 41.2-18.2 62.7-1.1 48.7 40.4 89.9 88.8 88.6 13.8-.4 27.1-4 39.2-9.9 16.2 3.6 37.8-16.3 46.6-27.4 11.1-14 20.8-38.1 14-56z" opacity="1" data-original="#c96f32"></path><path fill="#b75829" d="M332 265.4c-3.7-3-7.9-3.1-11.3-1.6-3.5-4.5-7.5-8.6-12.2-12.3-2.8-2.2-7.9.7-5.4 4.2.2.2.3.5.5.7 0 .3 0 .5.1.8 5 14 9.8 26 10.8 41.1 1 16.4-3.5 31.6-9.3 46.7-6.3 16.5-16.1 34.5-31.1 44.4-1.4.9-2.9 1.8-4.4 2.6-2.9 1.3-5.8 2.5-8.7 3.6-21.6 7.4-45.2 5.3-67.4 10.1-6.5 1.4-6.5 11.8 0 13.2 10.6 2.3 21.5 3.4 32.2 3.3 1.2 2 3 3.5 5.5 4.1 40.4 9.3 86.9-6.3 110.9-40.5 23.5-33.3 22.8-93.6-10.2-120.4z" opacity="1" data-original="#b75829"></path><path fill="#db9242" d="M303.4 255.6c-13.3-14.3-39.9-11.2-56.9-6.5-2.3.6-4.5 1.4-6.8 2.2-18.1-1.7-33.9 5.8-47.2 18.1-6.8 6.3-12.2 14.2-16.8 22.1-3.6 6.3-8.5 18.2-5.6 25.2.3.7.9 1.4 1.5 1.9-8.9 24.6-7.7 52 7.5 75.5 1.9 2.9 6.3.3 4.6-2.7-12.1-22.2-9.7-46.8.5-68.5 2.7-1.3 5.9-1.9 9-2.4 2.2 1.5 4.8 2.6 8 3 11.1 1.7 22.3-2.3 30-10.4 6.5-6.9 11-18.3 5.3-27-1.1-1.7-2.5-3-4.1-4.2 0-.3 0-.7.1-1 .2-4.1 1.8-7.5 3.1-11.2 4-2 8.2-3.8 12.5-5.2 8.5-2.9 17.4-4.1 26.3-4 8.8.1 17.1 3.2 25.9 2.6 3.9-.3 5.8-4.6 3.1-7.5zm-79.2 20.8c-.1.7-.1 1.4-.2 2.2-.8-.1-1.7-.3-2.5-.3.9-.7 1.8-1.4 2.7-1.9 0-.1 0 0 0 0z" opacity="1" data-original="#db9242"></path><path fill="#83d109" d="M402.5 319.3c-3.9-26-16.1-48.6-29.1-71.1-7.4-12.9-13.2-25.7-17.4-40-4-13.4-7.2-27-13.1-39.7-2-4.3-4-8.8-6.1-13.3 1.5-.9 3-3 2.7-4.9-2-16.1-14.5-25.8-22.1-39.1-1.2-2.1-3.9-2-5.5-.8-2.9-2.9-6-5.4-9-7.5-11-7.7-25.5-10-38.6-10.4-29.9-1-55.3 11.2-72.7 35.3-18.1 25-24.8 57.4-36 85.8-6.5 16.3-16.8 30.6-25.1 46-9.2 17.2-21.1 40.8-18.9 60.7.1.9.6 1.6 1.3 2-1 9.9-1.2 19.6-.9 28.4.8 27.2 12.2 53.6 29.1 74.6 15.5 19.3 35.4 33.1 58.4 42.1 12.6 5 26 7.5 39.4 9.3 10.3 1.4 22.4 3.8 33.1 2.1 11-.2 22.7-3.7 31.8-6.5 21-6.3 41.8-16.4 59.3-29.7 37.8-28.2 45.9-79 39.4-123.3zm-49.6 106.3c-13.7 11.9-31.2 20.6-48.1 27-8.6 3.3-17.5 5.7-26.6 7.3-5.5 1-10.9.8-16.3 1.1-18.6-1.4-36.9-3.6-54.8-9.7-20.3-6.9-37.7-19.9-51.5-36.2-16.3-19.3-26-43-27-68.2-1-24.9 7.9-47.6 11.3-71.5l.3-.6c8.1-14.4 18.1-27.8 25.6-42.6 11.9-23.6 18.1-49.7 29.1-73.6 11.1-24.2 26.5-42.1 53.5-46.9 12-2.2 24.7-1.3 36.3 2.4 2.1.7 4.1 1.6 6 2.6 4.3 3.3 8.1 7.2 11.5 12.4 9.8 15.2 16.5 34.4 23.4 51 8.8 21.3 11.7 44.4 22.3 65.2 11.3 22.3 25.2 42.5 31.6 67 9.9 38 4.3 86.3-26.6 113.3z" opacity="1" data-original="#83d109"></path><path fill="#2c352930" d="M396.9 298.8c-5.3-11.7-12.3-22.3-19.2-33.2-7-11.1-12.4-23.7-20.2-34.1-.2-.3-.5-.6-.8-.9-2.3-10.7-4.3-21.5-6.1-32.5-7.2-43.3-17.5-98.7-69.3-106.5-3-.5-5.5 3.8-2.3 5.4 20.4 10 30.7 25.4 38 46.5 7.2 20.6 10.3 42.4 13.7 63.9 3.1 20.2 6.1 40.5 12.6 60 7.1 21.6 14.8 43.1 19 65.5.2 1 .4 2 .5 3.1-.4.9-.6 1.9-.5 3 .1 1.9.4 3.8.8 5.6-3.4 15.2-15.8 25.5-20.1 40.2-.9 3 .4 6.2 2.9 8-12.8 14.4-26.8 23.9-45.5 29.4-21.9 6.5-46.3 9.6-68.9 5.4-25.5-4.7-43.4-17.1-57-39.1-.6-1-2.4-.7-2.3.6 5.6 47.6 48 61.8 89.9 60.7 4.5 1.4 9.4 1.6 13.5 3.8v.1c-.2.4-.5.7-.8 1-2.6.6-5.3 1.1-7.9 1.7-11.5 2.5-23.2 5.5-35 5.6-13 .1-24.7-1.8-37.5-3.4-4.6-.6-4.5 5.9-1 7.3 30 12.6 66.4 12.5 99.2 4.1 23.3 1.4 46.8-12.6 64.1-27 20-16.7 33-40.6 41-65.1 8.6-26.1 10.8-53.4-.8-79.1zM276.4 454.2h-.1c.1-.1.1-.1.1 0z" opacity="1" data-original="#2c352930"></path><path fill="#e3f22070" d="M273.4 89.7c-32.6-6.3-68.2 11.2-87.6 37-4 5.3-7.1 10.8-9.6 16.5-3.2 4.1-5.2 9.2-5.4 14.3-2.3 7.3-4.1 14.8-6 22.6-6 23.8-12 46.6-24.6 67.8-10.9 18.3-21.6 35.4-27.7 56.1-6.3 21.5-6.4 44-2.1 65.9 7.5 37.9 31.4 71.4 66.1 89.3 4.8 2.5 10.7-2.6 7.7-7.7-7.7-12.7-19.5-21.5-29.7-32-12.6-13.1-19.2-29.2-23.9-46.5-5.4-19.8-5.5-40-.9-59.9 4.8-20.7 16-37.9 26.8-55.8 9.8-16.2 15.4-32.8 20-51.1 2.5-10.3 4.2-21.1 6.5-31.8 7.1 2.8 15.9 2.1 21.9-2.7 9.6-7.7 12.8-24.7 7.6-35.5-1.1-2.3-3.9-3.6-6.3-3.6-2 0-3.9.2-5.9.5 17.4-22 46-31.5 73.2-36.2 3.6-.6 3.5-6.5-.1-7.2z" opacity="1" data-original="#e3f22070"></path><path fill="#abd207" d="M332.1 9.5c-15.8-8-36.3-1-48.7 10.4-12.1 11.1-17.8 27.8-24.6 42.3s6.9 28.5 21.5 21.5c11.1-5.4 21.1-12.4 30.5-20.4 9.1-7.6 20.5-19.4 22.7-31.4.2-.9.2-1.7.2-2.6 6-5.2 5.9-16-1.6-19.8z" opacity="1" data-original="#abd207"></path><path fill="#47a80b" d="M329.3 15.2c-4.3 4.8-6.8 10.8-10 16.3-4.4 7.8-10 14.4-15.9 21.1-5.2 5.9-11.7 11.8-19.1 14.7-7.1 2.9-14.7 3-20.7 7.9-3.7 3-1.1 8.2 2.5 9.6 14.6 5.5 38.5-6.4 47.8-16.2 6.1-6.4 10.8-11.5 15.4-19 4.2-7 4.4-23 5.7-31.1.7-3.1-3.1-6.1-5.7-3.3z" opacity="1" data-original="#47a80b"></path><path fill="#e3f22070" d="M330.6 19.1c-2.7-5.1-7.7-6.4-13.4-5.8-6.7-3.9-20.3 3.3-25.3 6-10.5 5.5-22 10.9-25.9 22.3-.5 1.4-2.8 6.7-1.8 7.3-4.9 7.4-2.9 14.6-2.7 22.3.1 2.8 3.8 3.9 5.3 1.4 3-5.1 4.7-10.9 7.7-16.2 4.2-7.3 10.1-13.3 16.4-18.8 6.5-5.6 14.8-8.6 23.1-10.5 6.2-1.4 11.2 1.4 16.1-3.3 1.2-1.1 1.3-3.2.5-4.7z" opacity="1" data-original="#e3f22070"></path><path fill="#851919" d="M255.2 241.5c-29.6-.4-57.7 12.2-75.8 35.9-17.7 23.1-24.4 52.4-20.1 81 4 26.3 18.9 50.3 41.7 64.3 20.6 12.7 45.9 15.5 69.5 12.3 24.1-3.3 47.4-14.2 64.9-31.1 18.8-18.1 26.6-41.7 26.9-67.4.2-25-5.4-51.1-23.9-69.1-19.5-18.9-48.5-24-74.6-25.6-2.9-.1-5.8-.2-8.6-.3-5-.2-5 7.7 0 7.8 27.7.8 59.1 4.8 79.5 25.5 19.1 19.4 21.6 50.5 19 76.1-5.4 53-64.3 81.7-112.4 76.9-19.3-1.9-37.9-10.2-51.6-24-16.3-16.3-23.8-40-24-62.6-.4-50.2 38.7-92.7 89.5-92 5 .2 5-7.6 0-7.7zM260.1 89.2c5.6-9 1-24.3-1.6-33.7-2.7-9.6-7.6-24.1-18.6-26.8-10.4-2.5-18.9 5.1-14 14.9 2.3 4.7 6.2 8.7 9.6 12.7 7.4 8.6 11.3 19.1 15.1 29.6 1.1 3.2 6.2 1.9 5.2-1.4-3.8-12.1-8.8-23.2-17.2-32.7-3-3.4-6-6.7-8.1-10.8-3.3-6.3 5.5-8.2 10-6 8.1 4 11.5 17.4 13.6 25.3 2.5 9.4 2.8 19 4.1 28.5.1.8 1.3 1.4 1.9.4z" opacity="1" data-original="#851919"></path><path fill="#851919" d="M259.4 64.8c3.8-8.9 6.1-18 11.1-26.5 4.8-8.3 12.2-14.2 20.8-18.3 9.8-4.6 21.5-6.1 32.2-6 10.4 0 9.1 8.6 7.5 16.6-2.3 11.6-6.5 22.5-14.4 31.4-14.3 16.1-37.4 21.1-57.9 22.7-3.9.3-3.9 6.3 0 6 23.1-1.8 46.9-7.7 63-25.5 10.2-11.2 15.1-26.2 16.6-41 2.5-24.8-32.4-15.9-45.9-10.9-20.3 7.6-35.1 29.1-34.4 51-.2.8 1 1.3 1.4.5z" opacity="1" data-original="#851919"></path><path fill="#851919" d="M408.4 329.8c-1.4-36-20.4-64.1-37.5-94.4-20.1-35.5-17.4-79.2-37.5-114.6-14.2-25-42.8-37.1-70.5-37.3-31.4-.1-60.4 15.8-79.1 40.5-11.6 15.4-18.4 34-23.8 52.4-4.1 14.1-5.9 28.9-13.2 41.8-15.9 28.1-33.2 54.7-40.1 86.8-12.2 56.7 10.6 121.6 60 153.3 25.3 16.3 55.8 22.7 85.6 23.7 32 1.1 65.1-4.3 93.2-20.4 46.5-26.9 64.2-80.6 62.9-131.8-.1-5-7.9-5-7.8 0 .7 27.9-3.7 56.1-16.9 81-13.7 25.8-36.9 44.4-64.2 54.1-33.7 12-73.2 12.3-107.8 3.8-29.2-7.1-55.7-23.3-73.6-47.7-17.4-23.8-25.1-53.2-26.3-82.3-1.5-37 13.7-69.8 32.2-100.8 5.5-9.1 12-18.3 15.5-28.5 6.3-18.8 9.1-38.4 17-56.8 14.2-33.3 42.5-57.6 79.2-61 20.9-1.9 42.6 3.9 58.5 17.9 22 19.3 25.9 53 32.2 79.9 2.9 12.5 6 25.1 11.2 36.8 4.6 10.3 10.6 19.9 16.4 29.6 13.7 23 25.5 46.6 26.6 73.9.2 5.2 8 5.2 7.8.1z" opacity="1" data-original="#851919"></path><g fill="#83d109"><path d="M411.8 349.1c-.4.4-.9.8-1.3 1.2-.1-.5-.3-.9-.4-1.4-.1-.3-.2-.5-.4-.8-.7-.4-1.3-.8-1.7-1.3-.1 0-.2 0-.3-.1.6 16.3-3 33.6-9.9 48.7 2.6 3.3 8.1 4.3 10-.5 2.5-6.5 5.9-12.4 7.4-19.3 1.3-6.3 4.7-13.9 4.7-20.7-2.2-2.3-4.9-4.4-8.1-5.8zM104.4 354.5c-1.1-5.2-2.5-10.7-1-15.6 1.4-4.7-5-6.7-7.6-3.1-9 12.5-1 33.7 2.4 46.9.7 2.9 3.5 4.7 6.4 4.8 1.3 0 2.2-.3 3.3-.9 1.5-.8 2.7-2.4 3.1-4.1-3.5-9-6.9-18.8-6.6-28zM222.8 480.8c-1.1 0-2.2 0-3.3.1-1-.1-2-.2-3.1-.3-3.4-.5-6.9-.7-10.4-.8-.8-.3-1.5-.7-2.2-1.2-3.4-2.1-7.5 3-4.3 5.6 1.8 1.5 3.7 2.7 5.7 3.6-1.5.9-2.5 2.5-2.5 4.4.1 6.7 7.6 7.4 12.4 5.5 4.2-1.7 8.5-4.4 11.5-7.8 2.9-3.5 1-9-3.8-9.1zM315.8 476c-8.6 1.4-19 2.4-26.8 6.5-1.8 1-2 4.1 0 5 .8.4 1.6.7 2.4.9 0 .2-.1.4-.1.6-.6 8.5 9.8 12.7 16.1 7.9 5.2-4 10.6-7.5 14.5-12.9 3.2-4.3-2-8.7-6.1-8z" fill="#83d109" opacity="1" data-original="#83d109"></path></g><g fill="#2c3529" opacity=".3"><path d="M104.5 352.8c-1-3.8-1.8-7.6-2.2-11.5-.3-2.6-3.9-2.2-3.9.3-.1 8.1.3 16.1 1.8 24.1 1.3 7.2 5.4 13.6 6.4 20.8.3 2.3 4.2 2.9 4.4.3.1-1.5.1-3.1 0-4.6-3.8-9.5-7.3-19.9-6.5-29.4zM414 357.1c-.6 1.2-1.2 2.5-1.7 3.7-.5.7-1.1 1.4-1.6 2l-.5.5c-.5-.2-1-.4-1.6-.5-.3-.1-.6-.1-.9 0l-.6-1.8c-1.2 11.2-4.2 22.4-8.6 32.7 1.7.1 3.6-.2 4.7-.7 4.8-2.1 6.2-8.1 6.5-12.9.5-.2.9-.4 1.3-.8 6.5-5.6 8-13.6 8.8-20.8.4-2.5-4.3-4.1-5.8-1.4zM317.1 474.8c-4.7 1.8-9.5 2.5-14.5 3.1-4.6.6-9.8-.4-14.1 1.1-1.3.5-1.4 2-.4 2.8 3.8 2.9 9.9 2.6 14.4 2.8h2.7c.4.2.9.3 1.3.5 2 .6 1.7 1.8 1.2 3.7-.6 2.1-2.3 4-3.9 5.4-1.4 1.4-3.2 1.9-4.4 3.6-1 1.3 0 3.7 1.6 4 5.3.8 11.4-6.3 12.7-11.8.6 0 1.2-.1 1.7-.4 2.8-1.2 2.4-4.3 1.4-6.8.7-.2 1.4-.4 2-.6 5-1.6 2.8-9.1-1.7-7.4zM227.2 479.8c-.7.1-1.3.2-2 .2-.4-.2-.8-.3-1.4-.4-5.8-.3-11.5-2.5-17.3-2.2l-1.2-.3c-1.3-.4-2.7 1.2-1.9 2.4 2.2 3.2 5.5 5.3 9.1 6.6.9 1.5.2 3.3-.5 5.2-.6.7-1.2 1.3-1.9 2-1.2 1.2-2.8 1.8-3.9 3-1.9 2.1-.6 5.4 2.3 5.5s5.6-2.5 7.4-4.4c2.4-2.3 4.1-5 5.3-8.1.2-.5.4-1 .5-1.6 2.6.1 5.1-.2 7.4-.7 5.1-.9 2.9-8-1.9-7.2zM322.6 369.4c-15-.8-28-5-39.3-15.3-7.2-6.7-11-39.9-26.4-33-5.9 2.7-10 10.5-13.5 15.6-5 7.5-9.9 13.8-16.6 19.8-9.1 8.3-19.8 11.1-31.6 13.2-4.1.7-8.4 1.3-12.7 1.6 3.9 3.4 7.8 6.6 12.7 8.9 6.9-.8 13.6-2 19.1-3.2 17.9-3.7 29.3-19.5 39.9-33.6.2.1.4.2.7.3.9.3 1.9.1 2.8.1 1.9 0 3.6-.5 5.2-1.5.9 2.3 1.8 4.7 2.7 7 4.3 10.5 10.8 16.7 20.5 22.7 6.3 3.9 13.3 5.9 20.4 7 11.4-2 23.7-3.9 33-10.2-5.5.5-11.1.9-16.9.6z" fill="#2c3529" opacity="1" data-original="#2c3529"></path></g><g fill="#e3f220"><path d="M101.6 343.8c.5-2.5-3.1-3.1-3.8-.7-2.6 8.8-4.2 16.8-2.5 26 1 5.2 3.8 14.4 10.2 14.3.8 0 1.7-.7 1.7-1.5.5-4.9-4-9.3-5.3-14.1-1.8-7.5-1.8-16.6-.3-24zM416.1 358.2c-1.9-2.5-3.5-4.9-5.9-7.2-.7-.7-1.7-.8-2.5-.5 0 2.6-.1 5.3-.3 8 .1.3.3.5.4.8 1.5 2.8 2.7 6.5 5.6 8.5 2.1 1.4 6.1.5 6.4-1.8.3-3-1.8-5.2-3.7-7.8zM293.7 479.1c-1.8-2.5-6.5-1.1-5.3 2.2 2.2 6.3 4.4 12.5 9.1 17.4 3.3 3.4 8.3-1.7 5.1-5.1-4-4.3-5.6-9.8-8.9-14.5zM207.6 479c-.3-1.9-3.4-1.4-3.3.4.3 5.1-1.9 10-1.3 15.2.4 4 6.9 4 6.4 0-.7-5.2-1-10.4-1.8-15.6z" opacity="1" fill="#e3f22070" data-original="#e3f22070"></path></g><path fill="#f9a5b4" d="M325.9 407.4c-13.8 2.5-28.1-4.1-30.1-15s7.7-21.3 23-24.5c13.7-2.9 29.1.4 32.3 15.1 3.3 15.2-11.5 22-25.2 24.4zM182.8 407.1c13.7 3 28.3-2.9 30.7-13.7s-6.8-21.6-22-25.4c-13.6-3.5-29.1-.8-32.9 13.8-3.9 15 10.5 22.3 24.2 25.3z" opacity="1" data-original="#f9a5b4"></path><g fill="#f34d65"><path d="M315.3 387.1c-.7-.2-1.6.2-1.7.9-.1.4-.2.8-.4 1.2-.2.5-.5 1-.7 1.5-.2.6.1 1.3.6 1.7.7.5 1.5.1 2-.5.7-.9 1.2-2.4 1.1-3.5.1-.6-.2-1.2-.9-1.3zM320.9 388c-.1.5-.1 1.1-.3 1.6-.2.6-.4 1.3-.1 1.9.2.4.6.5 1.1.5 1.7-.2 1.5-2.7 1.4-3.9-.1-1.4-1.9-1.4-2.1-.1zM332.3 386.9c-.2-1.3-2.2-1.2-2.5-.1-.1.5-.3 1.1-.5 1.5-.3.7-.8 1.6-.3 2.4.2.3.6.6 1 .6 1-.1 1.6-.9 2-1.8.3-.9.4-1.7.3-2.6z" fill="#f34d65" opacity="1" data-original="#f34d65"></path></g><g fill="#f34d65"><path d="M194.1 387.2c.7-.2 1.5.3 1.7 1 .1.4.2.8.3 1.3.2.5.5 1 .6 1.5.2.6-.1 1.3-.7 1.7-.8.4-1.5.1-2-.6-.7-.9-1.1-2.4-.9-3.6.1-.6.4-1.2 1-1.3zM188.5 387.9c0 .6.1 1.1.2 1.6.2.6.4 1.3 0 1.9-.2.4-.7.5-1.1.4-1.6-.3-1.3-2.8-1.2-4 .2-1.3 2-1.3 2.1.1zM177.2 386.3c.2-1.3 2.3-1.2 2.5.1.1.5.3 1.1.5 1.5.3.7.7 1.7.2 2.4-.2.3-.6.6-1 .5-1-.1-1.6-1-1.9-1.9-.4-.8-.5-1.6-.3-2.6z" fill="#f34d65" opacity="1" data-original="#f34d65"></path></g><g fill="#f2f5fe"><path d="M336.4 379.2c-.1 0-.1 0-.2-.1l.2.1z" fill="#f2f5fe" opacity="1" data-original="#f2f5fe"></path><path d="M337 372.8c-1.1-.5-2.5-.4-3.2.8-.7 1.1-.3 2.5.7 3.2l.1.1v.1l.4 1c.1.3.2.5.5.8 0 0 .6.4.8.5.5.2.9.3 1.4.1.1 0 .2-.1.2-.1.9-.4 1.3-1.1 1.5-2.1.3-1.8-.9-3.7-2.4-4.4zm-2.2 4.1c.1.2.1.1 0 0zM173.5 378.5c.1 0 .1 0 .2-.1-.5.2-.5.2-.2.1zM170.4 376.2c.1 1 .5 1.7 1.4 2.1.1 0 .1.1.2.1.4.2.9.2 1.4-.1.3-.2.8-.5.8-.5.3-.3.4-.4.5-.8 0 .1.4-.9.4-1v-.1l.1-.1c1.1-.6 1.5-2 .9-3.1-.7-1.2-2-1.4-3.1-.9-1.5.9-2.8 2.7-2.6 4.4zm4.8 0c-.2.2-.2.2 0 0z" fill="#f2f5fe" opacity="1" data-original="#f2f5fe"></path></g><path fill="#756c6c" d="M379.4 287.9c-12.1-.4-23.4-3-35.3-4-11.1-.9-22.5.6-33.5 2-12.1 1.6-24 3.5-35.4 8-13.5 5.2-27.8 2.6-41.3-.9-5.2-1.4-10-3.8-15-5.8-4.8-1.9-11.3-1.1-16.3-1.1-13 0-25.4.9-38.4 1.9-9.3.7-20.7-1.1-29.1 3.9-6.7 4-4.8 15-3.5 21.1.9 4.3 6.3 4.7 8.8 2 0 6.2.6 12.9 1.4 18.3 2.5 18 7.3 32.6 27.1 34.5 19.2 1.8 45.3 1.9 61.3-10.8 7.1-5.6 11.8-14.2 16.6-21.8 2.2-3.4 4.2-7 6.7-10.2 3.2-4.1 6.7-5 11.3-6.6 4.1 3 6 5 6.9 11.3 1.3 9.2 6.3 17.2 12.1 24.2 14.2 17.2 37.7 16.1 57.8 15.8 17.1-.3 29-11.3 33.9-27.3 1.4-4.7 1.3-10 1.6-14.9.3-5.2 2.7-7.5 5.8-11.2 3-3.6 4.5-7.7 3.4-11.6.8-1.7 1.4-3.5 1.7-5.4.7-5.9-2.3-11.2-8.6-11.4z" opacity="1" data-original="#756c6c"></path><g fill="#635b5b"><path d="M238.7 315c-.1-.7-.5-1.3-.9-1.7.3-2.2-.8-4.8-3.3-5.8-20.1-8.3-43.2-9.2-64.3-4.9-5.7 1.2-10.9 1.8-15.6 4.8-.4-1.1-1.4-1.9-2.9-2.1-3.2-.5-6.2-.2-9.2.8-2.7.9-6.6 3.4-9.2 1.7-2.2-1.5-5 2.1-2.9 3.8 1.5 1.2 2.9 2.1 4.4 2.7-.8 1.3-.6 3.1 1.3 3.6 3.9 1 4.6 2.5 4.7 6.3.1 3.7.7 7.7 1.4 11.3.6 3.2 5.6 3 6.3 0v-.1c.3 2.7 4.6 2.6 4.2-.1-.9-6.4 1.8-15.2 7.2-19.3 10.4-1.2 20.3-.3 30.9.2 6.8.4 13.6.3 20.4.8 3.7.3 7.5 1.1 11.2 1.6.8.3 1.6.5 2.3.7 2.4.9 4.5 1.7 6.1 3.6-1.2 5.4-2.9 10.7-5.7 15.4-3.7 6.2-12.7 9.1-19.1 11.1-13.7 4.2-34.1 6.9-47.2.1-.7-.4-1.5.6-.9 1.2 4.5 4.4 9.5 7.3 14.8 9.1-.8-.1-1.6-.1-2.3-.2-4.9-.1-8.3-2.6-12.9-3.4-2-.3-3.5 1.1-3.1 3.1 1.5 8.9 14.3 11.6 21.8 12.3 12.3 1.2 25.4-1.6 37-5.5 9.7-3.3 18.6-7.3 24.8-15.7s8.5-24.1 5.6-33.9c-.9-2.1-3.3-2.5-4.9-1.5zM390 306.9c-.3-1.4-2.1-2.4-3.4-1.9-2.7 1-4 3-7.1 2.9-2.9-.1-6.2-1.3-9.1-.6-.7.2-1.3.6-1.7 1.2-.4-.6-1-1.2-1.8-1.7-9.1-4.8-20.5-3.2-30.5-3.5-11.3-.3-22.9.1-34 1.8-7.5 1.1-15.5 2.7-20.8 8.6-4.1 4.6-4.1 10.3-2.7 15.8-.9-1.7-1.7-3.3-2.5-5-1.6-3.3-6.2-.4-4.8 2.8 6.2 14.4 8.1 30.5 24.7 36.9 9.6 3.7 19.2 5.9 29.4 7 8.4.9 20.3 2.3 27.6-2.6.2-.1.3-.3.5-.4 8.9-.7 14.2-13.5 17.5-20.5 4.8-10.3 10.8-20.9 7.9-31.7 6-.1 12-2.6 10.8-9.1zm-22.2 20.4c-1.2 5.2-4.7 9.5-7.1 14.1-1.9 3.7-3.6 7.5-5.9 11-1.8 2.9-4.7 4.1-6.8 6.5-5.2-.5-10.7.5-15.9.4-9.1-.2-18.3-2-27.1-4.2-9-2.3-15.2-8.3-20.2-15.6 1.5-.1 3-1.3 3-2.9 0-8.3-2.4-17.4 7.5-20.5 5.3-1.7 11.1-1.8 16.6-2.3 16.9-1.5 34.8-1.5 51.5 1 2.2.3 4.2-.9 5.2-2.6.1.2.2.3.4.5l.2.2c-.3 4.9-.3 9.7-1.4 14.4z" fill="#635b5b" opacity="1" data-original="#635b5b"></path></g><g fill="#8c8585"><path d="M388.1 292.5c-4.6-9.8-28.8-6.5-37.3-6.4-12.7.1-25.2-.4-37.8.9-13.5 1.4-25.7 6.4-38.6 10.1-15.8 4.5-30.1.5-45.3-4-14.5-4.3-29.5-5.9-44.6-6.4-13.7-.5-29.3-1-42.6 2.7-2 .5-3.7 1.4-5.1 2.6-1.4-1.7-4.8-1.8-5.2.9-.5 3-1.1 5.7-.7 8.8.2 1.7.6 3.4.9 5.1s1 2.7 1.8 4.2c.4.9 1.7.6 2-.3.3-1 1-1.9 1.1-3 .1-1.7.2-3.4.4-5.1v-.5c1.5-2.5 2.8-4.9 6.5-6.2 5.7-2.1 12.6-1.4 18.6-1.6 12.4-.4 24.7-.4 37 .7 24.2 2.2 46.5 14.8 71.1 10.9 10.2-1.6 19.9-6 29.8-8.7 13.4-3.7 27.6-3.5 41.4-3.4 6.5.1 13.1 0 19.6 0 3.5 0 18.5-.8 20.2 2.9 2.1 4.3 8.9.3 6.8-4.2zM224.1 327.2c-3 10.3-10.8 15.5-20.4 18.8-4.3 1.5-9 2.3-13.5 2.8-3.4.4-6.3-.1-9.2 1.9-1.2.9-1.4 2.6 0 3.5 6.8 4.2 20.1-1 26.7-3.9 9.5-4.1 15.6-12.9 17.9-22.7.2-1-1.2-1.4-1.5-.4zM363.2 324.8c-.9 9.4-5 15.9-13 20.7-3.6 2.2-7.6 3.5-11.7 4.4-3.7.9-7.5 0-11.2.8-2.7.6-2.6 4.7 0 5.4 8.3 2.2 20-2.9 26.8-7.6 7.8-5.4 13.1-14.3 13.2-23.7 0-2.7-3.9-2.6-4.1 0z" fill="#8c8585" opacity="1" data-original="#8c8585"></path></g><g fill="#aaa7a7"><path d="M186 324.3c4-5.5 8.6-10.5 10.4-17.1 1.1-3.9-3.1-6.6-6.5-5-8.6 4.2-15.2 12.7-19.5 21.1-1.6 3.2-1 7.5 2.4 9.3 4.7 2.5 11.2 3.2 7.7 9.7-2.9 5.4-7.7 6.6-8.4 13.1-.3 2.3 2.1 4.1 4.2 4.2 9.5.3 16.2-11.7 18.6-19.6 2.3-7.6-3.1-12.2-8.9-15.7z" fill="#aaa7a7" opacity="1" data-original="#aaa7a7"></path><path d="M204.3 307.6c-3.6 1.8-7.8 5.6-9 9.7-1.5 5.1-.5 5.3 2.1 9.2 5.9 8.9 1 17.3-3.9 24.7-2.2 3.4-5.5 6.9-4.4 11.2.3 1 1.6 1.1 2.2.3 5.5-8.6 10.9-17.8 12.2-28.1.5-3.7-2.1-6.8-4.5-9.3-4.2-4.4 4.9-12.3 6.6-16.7.2-.8-.7-1.3-1.3-1zM329.4 327.6c-1.8-1.8-3.8-2.7-5.9-3.2 2.9-5.2 6.3-10.2 8.5-15.8 1.7-4.3-3.8-7.4-7.3-5.6-8.9 4.8-14 15.4-17.5 24.6-1.3 3.4 1.4 7.4 4.7 8.3 2.2.6 4.1.9 6.3 1 2.6.2-.7 5.5-1.2 6.5-2.4 5.3-6.3 9.1-6.8 15-.3 3.2 3.2 5.3 6 4.6 8.6-2.2 14.9-15 15.9-23.3.7-4.1.5-9-2.7-12.1z" fill="#aaa7a7" opacity="1" data-original="#aaa7a7"></path><path d="M339.7 305.3c-3.3 5.4-5.6 11.2-8.6 16.7-.5 1-.3 2.5.8 3 14.9 6.4-1.7 25-2.8 35.3-.2 1.9 2.7 2.6 3.5 1 5.1-10.8 16.5-30.6 3.3-39 2.7-5.1 4-10.5 6.2-15.9.6-1.5-1.7-2.4-2.4-1.1z" fill="#aaa7a7" opacity="1" data-original="#aaa7a7"></path></g><path fill="#851919" d="M129.3 294.2c19.1-8.7 42.1-6.6 62.6-6 12.7.4 26.3.5 38.3 4.6 10.1 3.4 21 9.8 32 7.2 1.8-.4 1.7-3.1 0-3.6-5.5-1.6-11.3-1.9-16.8-3.7-6.2-2-12.1-4.8-18.4-6.7-12.5-3.7-27.4-3.2-40.3-3.4-18.6-.4-43.2-2.5-58.7 9.8-1.1.8.2 2.3 1.3 1.8z" opacity="1" data-original="#851919"></path><path fill="#851919" d="M128.5 292.5c-1.6 3.4-1.1 7.2-1.2 10.9 0 2.5-.1 5.1.4 7.6.6 3.2 5.3 5.9 8.3 5.2.6-.1 1.1-.9.9-1.5-1-2.6-4.7-2.7-4.8-5.6-.2-5.4 1.2-11.6-1.1-16.6-.5-1-2.1-1-2.5 0z" opacity="1" data-original="#851919"></path><path fill="#851919" d="M132.8 316.2c5.1 7 4.6 15.8 6.4 23.9 1.9 8.4 4.9 16.6 10.9 23 10.6 11.5 32.9 11.1 47 10.1 18-1.2 32-7 43.1-21.7 4.3-5.7 7.6-11.4 10.1-18 1.3-3.4 6.6-19.8 11.1-13.2 1.4 2.1 4.7.2 3.4-2-6.4-11-15.4 3.2-18.2 9.5-7.2 16.5-17 33.5-36.1 37.9-16.3 3.8-39.7 5.2-54.5-4-8.7-5.5-11.8-18.2-13.4-27.7-1.1-6.6-1.2-16.3-7.8-20-1.1-.7-3 .9-2 2.2zM390.6 292.4c-15.7-12.4-40-10-58.7-9.8-12.5.1-25.6.6-37.9 2.8-6.4 1.2-12.5 4.2-18.6 6.5-6.3 2.4-12.8 2.6-19.1 4.5-1.7.5-1.8 3.2 0 3.6 10 2.4 20.5-2.8 29.7-6.3 12-4.6 25.2-4.7 37.9-5.3 21.1-1 45.7-3.1 65.3 5.9 1.1.4 2.5-1.1 1.4-1.9z" opacity="1" data-original="#851919"></path><path fill="#851919" d="M387.6 292.5c-2.1 4.6-1.3 10.8-1.1 15.8.1 3.7-3.6 3.2-4.8 6.3-.2.6.2 1.4.8 1.5 2.8.7 7.3-1.7 8.1-4.7.6-2 .5-4.3.5-6.4 0-4.1.5-8.8-1.2-12.6-.3-.9-1.9-.9-2.3.1z" opacity="1" data-original="#851919"></path><path fill="#851919" d="M383.5 314c-6.1 3.4-6.6 12.1-7.6 18.3-1.5 9.7-4.2 20-11 27.3-6.5 6.9-18.6 7.9-27.3 8.3-9.9.5-20.1-.2-29.8-2.2-18.5-3.8-29-21.1-35.8-37.2-2.6-6.3-11.9-21.4-18.4-10.1-1.3 2.2 2 4 3.4 2 4.6-6.7 9.8 9.9 11.1 13.2 2.6 6.6 5.8 12.3 10.1 18 5.6 7.4 12.6 13.9 21.2 17.6 6.7 2.9 14.7 3.6 22 4.2 15.2 1.3 35.1.6 47-10.1 6.3-5.7 9-15.1 10.9-23 2-8.1 1.3-16.9 6.4-23.9 1-1.5-.9-3.1-2.2-2.4zM148 306.9c16.9-1.7 34.8-1.4 51.7-.7 7.6.3 42.8.6 36.5 15.8-.4 1.1 1 2.1 1.9 1.5 5.2-3.7 3.2-11-.9-14.5-6.8-5.9-17.6-6.8-26.1-7.7-20.4-2.1-43.6-2.3-63.4 3.9-.8.3-.7 1.8.3 1.7z" opacity="1" data-original="#851919"></path><path fill="#851919" d="M152 304.4c-10.8 4-8.2 19.4-6.1 28 2.7 11.4 7.9 24.7 19.6 29 16.5 6.1 37.6 5.1 53.1-3.5 14.8-8.3 22.9-24 23.1-40.5 0-2.8-4.3-2.8-4.4 0-.3 15.2-6.9 27.2-19.5 35.8-12.7 8.8-30.9 8.9-45.5 5.8-5.6-1.2-10.4-2.8-13.8-7.5-3.1-4.2-5.2-9.2-7-14-3-8.1-8-24.5 1.7-30 1.8-.9.7-3.8-1.2-3.1zM370.2 305.2c-19.5-6.1-41.8-5.8-62-4-8 .7-20.8 1.3-26.9 7.3-3.9 3.8-7.3 10.9-1.5 15 .9.6 2.4-.4 1.9-1.5-6.3-15.3 28.9-15.5 36.5-15.8 16.9-.7 34.9-1 51.7.7 1.1.1 1.2-1.4.3-1.7z" opacity="1" data-original="#851919"></path><path fill="#851919" d="M364.6 307.5c9.4 5.2 4.8 20.4 2.3 28.4-1.6 5.1-3.9 10-6.8 14.5-3.5 5.5-8.4 7-14.5 8.6-30.1 7.6-64.2-7.8-64.9-41.6-.1-2.8-4.4-2.8-4.3 0 .3 17 8 29.6 21.6 39.5 14.3 10.4 36.6 9.7 52.7 5.1 12.8-3.7 17.6-16.2 21.1-28.1 2.5-8.7 5.5-25.5-5.7-29.6-2-.6-3.2 2.3-1.5 3.2zM244.2 367.3c3.4 6.9 11.5 9.9 18.8 10.3 5.6.3 17.1-3.1 15.8-10.6-.1-.8-1.2-1.2-1.9-.8-2.2 1.3-3 3.6-5.1 5.2-2.5 1.9-5.8 2.3-8.8 2.3-6.5.2-13.2-2.7-17.4-7.5-.7-.8-1.8.2-1.4 1.1zM407.5 345.6c13.6 11.3 11.5 28 .9 40.4-2.2 2.6-4.9 5-7.6 7.1-2.1 1.6-5.8 2.9-7.2 5.3-2.3 4 2.4 5.1 5.2 4 11.3-4.4 20.7-17.6 24.2-28.7 1.7-5.4 1.3-11.3-.4-16.6-2.3-6.9-7.9-9.9-13.7-13.3-1.1-.6-2.4 1-1.4 1.8zM103 328.1c-10.5 5.1-14.9 22.8-15.1 33.4-.3 14 12.8 26.5 24 33 3 1.7 6.5-2.5 3.8-4.9-8.9-7.8-20.7-14.8-21.3-28.1-.5-11.9 6.3-20.7 11.3-30.7.9-1.9-.9-3.6-2.7-2.7zM202.3 471.1c-5.1 8-10.4 25.6-1 32.3 5.8 4.2 14.9-.1 20-3.3 7.6-4.9 13.7-12.5 18.2-20.3 2.3-4-3.9-7.6-6.2-3.6-3 5.1-6.6 9.6-10.8 13.7-3.8 3.7-11.9 10.3-17.6 7.5-5.9-2.9 1.9-20.4 2.3-24.9.1-2.8-3.6-3.4-4.9-1.4zM286.7 474.6c-2.5 11 2.1 33.9 17.5 31.2 7.9-1.4 13.3-6.8 17-13.7 2.7-5 8.5-17.6 4.6-22.8-1.1-1.5-2.9-1.8-4.4-.6-3.2 2.8-2.8 9.1-3.9 13-1.5 5.6-4.2 11.3-9 14.9-12.8 9.5-17.1-12.9-17.6-21.5-.1-2.3-3.7-3-4.2-.5z" opacity="1" data-original="#851919"></path></g></svg>